# xmcd CD database file
#
# Track frame offsets:
#	150
#	32587
#	65049
#	91293
#	113736
#	134591
#	153326
#	163714
#	187995
#	212968
#	244051
#	253822
#	289772
#
# Disc length: 4026 seconds
#
# Revision: 0
# Processed by: cddbd v1.5.2PL0 Copyright (c) Steve Scherf et al.
# Submitted via: CDex 1.51
#
DISCID=bd0fb80d
DTITLE=Carlos Vamos - Live in Italy
DYEAR=2006
DGENRE=Jazz
TTITLE0=Little Wing
TTITLE1=Vamosia
TTITLE2=Yesterday
TTITLE3=Rubina
TTITLE4=Verdis Blues
TTITLE5=Nothing Will..
TTITLE6=Vamosia (ins)
TTITLE7=Treasures
TTITLE8=Hermano..
TTITLE9=Always and Forever
TTITLE10=Cinema Paradiso
TTITLE11=Unexpected Samba
TTITLE12=Mare Di Fruto
EXTD=YEAR: 2006
EXTT0=
EXTT1=
EXTT2=
EXTT3=
EXTT4=
EXTT5=
EXTT6=
EXTT7=
EXTT8=
EXTT9=
EXTT10=
EXTT11=
EXTT12=
PLAYORDER=
